<svg width="36" height="36" viewBox="0 0 36 36" fill="none" xmlns="http://www.w3.org/2000/svg">
<path d="M31.6357 0.192383C31.8607 -0.0507997 32.2404 -0.0655912 32.4834 0.15918L35.123 2.60449C35.3664 2.82915 35.3819 3.20882 35.1572 3.45215L33.9346 4.77148L34.8145 5.59082V5.5918C35.0578 5.81673 35.0726 6.1964 34.8477 6.43945L32.4033 9.0791H32.4004V25.0771L34.9629 22.3838C35.1329 22.2058 35.3943 22.1484 35.623 22.2393C35.8508 22.3305 35.9999 22.5515 36 22.7969V35.3965C35.9998 35.7275 35.7308 35.9961 35.3994 35.9961H23.4004C23.2463 35.9964 23.0978 35.937 22.9863 35.8311C22.7463 35.6028 22.7366 35.2225 22.9648 34.9824L26.5713 31.1963H15.5771C15.5321 31.5252 15.3955 31.8355 15.1836 32.0908L12.1123 35.7803C11.9003 36.0349 11.5212 36.0694 11.2666 35.8574L8.5 33.5537C8.24566 33.3419 8.21117 32.9637 8.42285 32.709L9.68262 31.1963H0.600586C0.269105 31.1963 5.15565e-05 30.9278 0 30.5967V4.79883C0.00192258 3.14279 1.34385 1.8008 3 1.79883H3.59961C5.2558 1.80075 6.59769 3.14276 6.59961 4.79883H27.3701L31.6357 0.192383ZM24.7998 34.7959H34.7998V24.2969L24.7998 34.7959ZM9.72949 33.0166L11.5742 34.5518L13.1094 32.707L11.2646 31.1709L9.72949 33.0166ZM33 28.1973C33.3312 28.1973 33.6006 28.4654 33.6006 28.7969V32.9961C33.6006 33.3273 33.3315 33.5957 33 33.5957H28.8008C28.558 33.5957 28.3389 33.4497 28.2461 33.2256C28.1535 33.0016 28.2046 32.7438 28.376 32.5723L32.5762 28.373C32.6884 28.2605 32.8411 28.1974 33 28.1973ZM30.249 32.3965H32.4004V30.2451L30.249 32.3965ZM13.2617 29.7109C13.0071 29.4989 12.6281 29.5335 12.416 29.7881L12.0332 30.249L13.877 31.7842L14.2607 31.3232V31.3223C14.4725 31.0674 14.4385 30.6883 14.1836 30.4766L13.2617 29.7109ZM3.00098 28.1963C2.00671 28.1963 1.2002 29.0032 1.2002 29.9971H5.40039C5.40039 29.0032 4.59474 28.1964 3.60059 28.1963H3.00098ZM6.60059 29.9961H10.6807L11.4941 29.0205C12.1302 28.2565 13.2652 28.153 14.0293 28.7891L14.9512 29.5566C15.0986 29.6821 15.2255 29.83 15.3252 29.9961H27.7139L31.2002 26.3369V7.72656L26.6006 12.6973C26.549 12.7502 26.4881 12.7937 26.4209 12.8242C26.4048 12.8321 26.389 12.8392 26.374 12.8447C26.3671 12.8472 26.3601 12.8512 26.3535 12.8545C26.346 12.8582 26.3383 12.8616 26.3301 12.8643L22.9697 13.8438C22.8756 13.8712 22.776 13.8745 22.6797 13.8545C22.3554 13.787 22.1475 13.4697 22.2148 13.1455L22.9307 9.7207C22.9333 9.70899 22.938 9.69761 22.9424 9.68652C22.9451 9.67953 22.948 9.67191 22.9502 9.66504C22.9562 9.64705 22.9617 9.63047 22.9688 9.61328C22.9937 9.54961 23.0299 9.49061 23.0752 9.43945L26.2598 5.99805H6.60059V29.9961ZM3.00098 2.99805C2.00671 2.99805 1.2002 3.80464 1.2002 4.79883V27.6123C1.71655 27.2152 2.34949 26.9993 3.00098 26.9971H3.60059C4.25168 26.9993 4.88411 27.2153 5.40039 27.6123V4.79883C5.40039 3.80472 4.59474 2.99818 3.60059 2.99805H3.00098ZM18.5996 26.3965H17.3994V25.1973H18.5996V26.3965ZM17.5752 12.1729C17.8095 11.9387 18.1896 11.9386 18.4238 12.1729L22.0234 15.7725C22.1357 15.8853 22.1993 16.0381 22.2002 16.1973V22.7969H26.3994C26.7308 22.7969 26.9998 23.0654 27 23.3965C27 23.7279 26.7315 23.9969 26.4004 23.9971H9.60059C9.26907 23.9971 9 23.728 9 23.3965C9.0002 23.0654 9.2692 22.7969 9.60059 22.7969H13.7998V16.1973C13.8004 16.0383 13.8639 15.8856 13.9756 15.7725L17.5752 12.1729ZM15 22.7969H21V16.7979H15V22.7969ZM15.8486 15.5977H20.1523L18 13.4463L15.8486 15.5977ZM23.5928 12.4141L24.9736 12.0107L23.8877 11.0059L23.5928 12.4141ZM24.3633 9.81348L26.126 11.4434L31.2002 5.95996V5.95117H31.207L32.2383 4.83789L30.4766 3.20801L24.3633 9.81348ZM18.5996 10.7979H17.3994V9.59863H18.5996V10.7979ZM32.3994 6.43066V7.3125L33.5596 6.05859L33.1201 5.65039L32.3994 6.43066ZM31.292 2.32715L33.0527 3.95801L33.8682 3.07617L32.1074 1.44629L31.292 2.32715Z" fill="black"/>
</svg>
